<mxfile modified="2021-11-18T17:58:20.193Z" host="app.diagrams.net" agent="5.0 (Windows NT 10.0; Win64; x64) AppleWebKit/537.36 (KHTML, like Gecko) Chrome/95.0.4638.69 Safari/537.36" etag="KnTn-_X-hEa42Bl4VV8L" version="15.1.4" type="github">
  <diagram id="l8hXMBHkgcEJcSW0mbfh" name="Page-1">
    <mxGraphModel dx="1422" dy="762" grid="1" gridSize="10" guides="1" tooltips="1" connect="1" arrows="1" fold="1" page="1" pageScale="1" pageWidth="1169" pageHeight="827" math="0" shadow="0">
      <root>
        <mxCell id="0" />
        <mxCell id="1" parent="0" />
        <mxCell id="b7Ml-bm5nvbfuDIkJ_Sf-150" style="edgeStyle=orthogonalEdgeStyle;rounded=0;orthogonalLoop=1;jettySize=auto;html=1;" edge="1" parent="1" source="b7Ml-bm5nvbfuDIkJ_Sf-11" target="b7Ml-bm5nvbfuDIkJ_Sf-123">
          <mxGeometry relative="1" as="geometry">
            <Array as="points">
              <mxPoint x="230" y="199" />
              <mxPoint x="230" y="257" />
              <mxPoint x="169" y="257" />
            </Array>
          </mxGeometry>
        </mxCell>
        <mxCell id="b7Ml-bm5nvbfuDIkJ_Sf-151" style="edgeStyle=orthogonalEdgeStyle;rounded=0;orthogonalLoop=1;jettySize=auto;html=1;entryX=0.478;entryY=0;entryDx=0;entryDy=0;entryPerimeter=0;" edge="1" parent="1" source="b7Ml-bm5nvbfuDIkJ_Sf-11" target="b7Ml-bm5nvbfuDIkJ_Sf-125">
          <mxGeometry relative="1" as="geometry">
            <Array as="points">
              <mxPoint x="440" y="220" />
            </Array>
          </mxGeometry>
        </mxCell>
        <mxCell id="b7Ml-bm5nvbfuDIkJ_Sf-152" style="edgeStyle=orthogonalEdgeStyle;rounded=0;orthogonalLoop=1;jettySize=auto;html=1;" edge="1" parent="1" source="b7Ml-bm5nvbfuDIkJ_Sf-11" target="b7Ml-bm5nvbfuDIkJ_Sf-119">
          <mxGeometry relative="1" as="geometry" />
        </mxCell>
        <mxCell id="b7Ml-bm5nvbfuDIkJ_Sf-153" style="edgeStyle=orthogonalEdgeStyle;rounded=0;orthogonalLoop=1;jettySize=auto;html=1;" edge="1" parent="1" source="b7Ml-bm5nvbfuDIkJ_Sf-11">
          <mxGeometry relative="1" as="geometry">
            <mxPoint x="299" y="600" as="targetPoint" />
            <Array as="points">
              <mxPoint x="299" y="470" />
              <mxPoint x="299" y="470" />
            </Array>
          </mxGeometry>
        </mxCell>
        <mxCell id="b7Ml-bm5nvbfuDIkJ_Sf-11" value="Distributed Online Store" style="sketch=0;aspect=fixed;html=1;points=[];align=center;image;fontSize=12;image=img/lib/mscae/Store_Marketplace.svg;" vertex="1" parent="1">
          <mxGeometry x="268.40000000000003" y="164" width="61.6" height="70" as="geometry" />
        </mxCell>
        <mxCell id="b7Ml-bm5nvbfuDIkJ_Sf-84" value="" style="shape=image;html=1;verticalAlign=top;verticalLabelPosition=bottom;labelBackgroundColor=#ffffff;imageAspect=0;aspect=fixed;image=https://cdn3.iconfinder.com/data/icons/travelling-icon-set-ii-part/800/ticket-128.png" vertex="1" parent="1">
          <mxGeometry x="630" y="465" width="100" height="100" as="geometry" />
        </mxCell>
        <mxCell id="b7Ml-bm5nvbfuDIkJ_Sf-156" style="edgeStyle=orthogonalEdgeStyle;rounded=0;orthogonalLoop=1;jettySize=auto;html=1;" edge="1" parent="1" source="b7Ml-bm5nvbfuDIkJ_Sf-85" target="b7Ml-bm5nvbfuDIkJ_Sf-103">
          <mxGeometry relative="1" as="geometry">
            <Array as="points">
              <mxPoint x="1030" y="200" />
              <mxPoint x="1030" y="260" />
              <mxPoint x="968" y="260" />
            </Array>
          </mxGeometry>
        </mxCell>
        <mxCell id="b7Ml-bm5nvbfuDIkJ_Sf-85" value="Monolithic Online Store" style="sketch=0;pointerEvents=1;shadow=0;dashed=0;html=1;strokeColor=none;fillColor=#505050;labelPosition=center;verticalLabelPosition=bottom;verticalAlign=top;outlineConnect=0;align=center;shape=mxgraph.office.concepts.marketplace_shopping_bag;" vertex="1" parent="1">
          <mxGeometry x="932.6" y="143" width="50" height="84" as="geometry" />
        </mxCell>
        <mxCell id="b7Ml-bm5nvbfuDIkJ_Sf-103" value="" style="strokeColor=#666666;html=1;verticalLabelPosition=bottom;labelBackgroundColor=#ffffff;verticalAlign=top;outlineConnect=0;shadow=0;dashed=0;shape=mxgraph.rack.general.server_1;" vertex="1" parent="1">
          <mxGeometry x="858.4" y="290" width="220" height="480" as="geometry" />
        </mxCell>
        <mxCell id="b7Ml-bm5nvbfuDIkJ_Sf-105" value="" style="shape=image;verticalLabelPosition=bottom;verticalAlign=top;imageAspect=0;aspect=fixed;image=data:image/svg+xml,PHN2ZyB4bWxucz0iaHR0cDovL3d3dy53My5vcmcvMjAwMC9zdmciIHZlcnNpb249IjEiIHZpZXdCb3g9IjAgMCA0OCA0OCIgZW5hYmxlLWJhY2tncm91bmQ9Im5ldyAwIDAgNDggNDgiPiYjeGE7ICAgIDxwYXRoIGZpbGw9IiM0MjQyNDIiIGQ9Ik0yNCw0Yy01LjUsMC0xMCw0LjUtMTAsMTB2NGg0di00YzAtMy4zLDIuNy02LDYtNnM2LDIuNyw2LDZ2NGg0di00QzM0LDguNSwyOS41LDQsMjQsNHoiLz4mI3hhOyAgICA8cGF0aCBmaWxsPSIjRkI4QzAwIiBkPSJNMzYsNDRIMTJjLTIuMiwwLTQtMS44LTQtNFYyMmMwLTIuMiwxLjgtNCw0LTRoMjRjMi4yLDAsNCwxLjgsNCw0djE4QzQwLDQyLjIsMzguMiw0NCwzNiw0NHoiLz4mI3hhOyAgICA8Y2lyY2xlIGZpbGw9IiNDNzZFMDAiIGN4PSIyNCIgY3k9IjMxIiByPSIzIi8+JiN4YTs8L3N2Zz4=;labelBackgroundColor=none;" vertex="1" parent="1">
          <mxGeometry x="900" y="510" width="60" height="60" as="geometry" />
        </mxCell>
        <mxCell id="b7Ml-bm5nvbfuDIkJ_Sf-106" value="" style="shape=image;html=1;verticalAlign=top;verticalLabelPosition=bottom;labelBackgroundColor=#ffffff;imageAspect=0;aspect=fixed;image=https://cdn4.iconfinder.com/data/icons/computer-and-web-2/500/Calendar-128.png" vertex="1" parent="1">
          <mxGeometry x="977.6" y="530" width="70" height="70" as="geometry" />
        </mxCell>
        <mxCell id="b7Ml-bm5nvbfuDIkJ_Sf-107" value="" style="shape=image;html=1;verticalAlign=top;verticalLabelPosition=bottom;labelBackgroundColor=#ffffff;imageAspect=0;aspect=fixed;image=https://cdn1.iconfinder.com/data/icons/icons-for-a-site-1/64/advantage_payment_way-128.png" vertex="1" parent="1">
          <mxGeometry x="900" y="600" width="70" height="70" as="geometry" />
        </mxCell>
        <mxCell id="b7Ml-bm5nvbfuDIkJ_Sf-108" value="" style="shape=image;verticalLabelPosition=bottom;verticalAlign=top;imageAspect=0;aspect=fixed;image=data:image/svg+xml,PHN2ZyB4bWxucz0iaHR0cDovL3d3dy53My5vcmcvMjAwMC9zdmciIHZlcnNpb249IjEiIHZpZXdCb3g9IjAgMCA0OCA0OCIgZW5hYmxlLWJhY2tncm91bmQ9Im5ldyAwIDAgNDggNDgiPiYjeGE7ICAgIDxwYXRoIGZpbGw9IiM3ODkwOUMiIGQ9Ik00MCw0MUg4Yy0yLjIsMC00LTEuOC00LTRsMC0yMC45YzAtMS4zLDAuNi0yLjUsMS43LTMuM0wyNCwwbDE4LjMsMTIuOGMxLjEsMC43LDEuNywyLDEuNywzLjNWMzcgQzQ0LDM5LjIsNDIuMiw0MSw0MCw0MXoiLz4mI3hhOyAgICA8cmVjdCB4PSIxMiIgeT0iMTEiIGZpbGw9IiNmZmYiIHdpZHRoPSIyNCIgaGVpZ2h0PSIyMiIvPiYjeGE7ICAgIDxwb2x5Z29uIGZpbGw9IiM5QzI3QjAiIHBvaW50cz0iMjQsMTMuNiAxOCwyMS40IDMwLDIxLjQiLz4mI3hhOyAgICA8cGF0aCBmaWxsPSIjQ0ZEOERDIiBkPSJNNDAsNDFIOGMtMi4yLDAtNC0xLjgtNC00bDAtMjBsMjAsMTNsMjAtMTN2MjBDNDQsMzkuMiw0Mi4yLDQxLDQwLDQxeiIvPiYjeGE7ICAgIDxwb2x5Z29uIGZpbGw9IiM5QzI3QjAiIHBvaW50cz0iMjQsMjggMjYsMjYuNyAyNiwyMCAyMiwyMCAyMiwyNi43Ii8+JiN4YTs8L3N2Zz4=;labelBackgroundColor=none;" vertex="1" parent="1">
          <mxGeometry x="982.6" y="650" width="60" height="60" as="geometry" />
        </mxCell>
        <mxCell id="b7Ml-bm5nvbfuDIkJ_Sf-113" value="" style="shape=mxgraph.signs.transportation.train_3;html=1;pointerEvents=1;fillColor=#000000;strokeColor=none;verticalLabelPosition=bottom;verticalAlign=top;align=center;labelBackgroundColor=none;" vertex="1" parent="1">
          <mxGeometry x="660" y="608" width="99" height="62" as="geometry" />
        </mxCell>
        <mxCell id="b7Ml-bm5nvbfuDIkJ_Sf-114" value="" style="shape=mxgraph.signs.transportation.train_2;html=1;pointerEvents=1;fillColor=#000000;strokeColor=none;verticalLabelPosition=bottom;verticalAlign=top;align=center;labelBackgroundColor=none;" vertex="1" parent="1">
          <mxGeometry x="647.0000000000001" y="280" width="66" height="99" as="geometry" />
        </mxCell>
        <mxCell id="b7Ml-bm5nvbfuDIkJ_Sf-116" value="" style="sketch=0;aspect=fixed;html=1;points=[];align=center;image;fontSize=12;image=img/lib/mscae/Container_Registries.svg;labelBackgroundColor=none;" vertex="1" parent="1">
          <mxGeometry x="90.66999999999999" y="520" width="220.93" height="190" as="geometry" />
        </mxCell>
        <mxCell id="b7Ml-bm5nvbfuDIkJ_Sf-27" value="" style="shape=image;html=1;verticalAlign=top;verticalLabelPosition=bottom;labelBackgroundColor=#ffffff;imageAspect=0;aspect=fixed;image=https://cdn1.iconfinder.com/data/icons/icons-for-a-site-1/64/advantage_payment_way-128.png" vertex="1" parent="1">
          <mxGeometry x="57.400000000000006" y="570" width="90" height="90" as="geometry" />
        </mxCell>
        <mxCell id="b7Ml-bm5nvbfuDIkJ_Sf-117" value="" style="sketch=0;aspect=fixed;html=1;points=[];align=center;image;fontSize=12;image=img/lib/mscae/Docker.svg;labelBackgroundColor=none;" vertex="1" parent="1">
          <mxGeometry x="220.61999999999998" y="670" width="60.98" height="50" as="geometry" />
        </mxCell>
        <mxCell id="b7Ml-bm5nvbfuDIkJ_Sf-119" value="" style="sketch=0;aspect=fixed;html=1;points=[];align=center;image;fontSize=12;image=img/lib/mscae/Container_Registries.svg;labelBackgroundColor=none;" vertex="1" parent="1">
          <mxGeometry x="364" y="580" width="220.93" height="190" as="geometry" />
        </mxCell>
        <mxCell id="b7Ml-bm5nvbfuDIkJ_Sf-120" value="" style="shape=image;verticalLabelPosition=bottom;verticalAlign=top;imageAspect=0;aspect=fixed;image=data:image/svg+xml,PHN2ZyB4bWxucz0iaHR0cDovL3d3dy53My5vcmcvMjAwMC9zdmciIHZlcnNpb249IjEiIHZpZXdCb3g9IjAgMCA0OCA0OCIgZW5hYmxlLWJhY2tncm91bmQ9Im5ldyAwIDAgNDggNDgiPiYjeGE7ICAgIDxwYXRoIGZpbGw9IiM3ODkwOUMiIGQ9Ik00MCw0MUg4Yy0yLjIsMC00LTEuOC00LTRsMC0yMC45YzAtMS4zLDAuNi0yLjUsMS43LTMuM0wyNCwwbDE4LjMsMTIuOGMxLjEsMC43LDEuNywyLDEuNywzLjNWMzcgQzQ0LDM5LjIsNDIuMiw0MSw0MCw0MXoiLz4mI3hhOyAgICA8cmVjdCB4PSIxMiIgeT0iMTEiIGZpbGw9IiNmZmYiIHdpZHRoPSIyNCIgaGVpZ2h0PSIyMiIvPiYjeGE7ICAgIDxwb2x5Z29uIGZpbGw9IiM5QzI3QjAiIHBvaW50cz0iMjQsMTMuNiAxOCwyMS40IDMwLDIxLjQiLz4mI3hhOyAgICA8cGF0aCBmaWxsPSIjQ0ZEOERDIiBkPSJNNDAsNDFIOGMtMi4yLDAtNC0xLjgtNC00bDAtMjBsMjAsMTNsMjAtMTN2MjBDNDQsMzkuMiw0Mi4yLDQxLDQwLDQxeiIvPiYjeGE7ICAgIDxwb2x5Z29uIGZpbGw9IiM5QzI3QjAiIHBvaW50cz0iMjQsMjggMjYsMjYuNyAyNiwyMCAyMiwyMCAyMiwyNi43Ii8+JiN4YTs8L3N2Zz4=;labelBackgroundColor=#ffffff;" vertex="1" parent="1">
          <mxGeometry x="344" y="638" width="80" height="80" as="geometry" />
        </mxCell>
        <mxCell id="b7Ml-bm5nvbfuDIkJ_Sf-121" value="" style="sketch=0;aspect=fixed;html=1;points=[];align=center;image;fontSize=12;image=img/lib/mscae/Docker.svg;labelBackgroundColor=none;" vertex="1" parent="1">
          <mxGeometry x="490" y="720" width="60.98" height="50" as="geometry" />
        </mxCell>
        <mxCell id="b7Ml-bm5nvbfuDIkJ_Sf-123" value="" style="sketch=0;aspect=fixed;html=1;points=[];align=center;image;fontSize=12;image=img/lib/mscae/Container_Registries.svg;labelBackgroundColor=none;" vertex="1" parent="1">
          <mxGeometry x="58" y="280" width="220.93" height="190" as="geometry" />
        </mxCell>
        <mxCell id="b7Ml-bm5nvbfuDIkJ_Sf-104" value="" style="shape=image;verticalLabelPosition=bottom;verticalAlign=top;imageAspect=0;aspect=fixed;image=data:image/svg+xml,PHN2ZyB4bWxucz0iaHR0cDovL3d3dy53My5vcmcvMjAwMC9zdmciIHZlcnNpb249IjEiIHZpZXdCb3g9IjAgMCA0OCA0OCIgZW5hYmxlLWJhY2tncm91bmQ9Im5ldyAwIDAgNDggNDgiPiYjeGE7ICAgIDxwYXRoIGZpbGw9IiM0MjQyNDIiIGQ9Ik0yNCw0Yy01LjUsMC0xMCw0LjUtMTAsMTB2NGg0di00YzAtMy4zLDIuNy02LDYtNnM2LDIuNyw2LDZ2NGg0di00QzM0LDguNSwyOS41LDQsMjQsNHoiLz4mI3hhOyAgICA8cGF0aCBmaWxsPSIjRkI4QzAwIiBkPSJNMzYsNDRIMTJjLTIuMiwwLTQtMS44LTQtNFYyMmMwLTIuMiwxLjgtNCw0LTRoMjRjMi4yLDAsNCwxLjgsNCw0djE4QzQwLDQyLjIsMzguMiw0NCwzNiw0NHoiLz4mI3hhOyAgICA8Y2lyY2xlIGZpbGw9IiNDNzZFMDAiIGN4PSIyNCIgY3k9IjMxIiByPSIzIi8+JiN4YTs8L3N2Zz4=;labelBackgroundColor=#ffffff;" vertex="1" parent="1">
          <mxGeometry x="50" y="344" width="80" height="80" as="geometry" />
        </mxCell>
        <mxCell id="b7Ml-bm5nvbfuDIkJ_Sf-124" value="" style="sketch=0;aspect=fixed;html=1;points=[];align=center;image;fontSize=12;image=img/lib/mscae/Docker.svg;labelBackgroundColor=none;" vertex="1" parent="1">
          <mxGeometry x="200" y="420" width="60.98" height="50" as="geometry" />
        </mxCell>
        <mxCell id="b7Ml-bm5nvbfuDIkJ_Sf-125" value="" style="sketch=0;aspect=fixed;html=1;points=[];align=center;image;fontSize=12;image=img/lib/mscae/Container_Registries.svg;labelBackgroundColor=none;" vertex="1" parent="1">
          <mxGeometry x="330" y="330" width="230" height="197.8" as="geometry" />
        </mxCell>
        <mxCell id="b7Ml-bm5nvbfuDIkJ_Sf-127" value="" style="shape=image;html=1;verticalAlign=top;verticalLabelPosition=bottom;labelBackgroundColor=#ffffff;imageAspect=0;aspect=fixed;image=https://cdn4.iconfinder.com/data/icons/computer-and-web-2/500/Calendar-128.png" vertex="1" parent="1">
          <mxGeometry x="330" y="414" width="70" height="70" as="geometry" />
        </mxCell>
        <mxCell id="b7Ml-bm5nvbfuDIkJ_Sf-129" value="" style="sketch=0;aspect=fixed;html=1;points=[];align=center;image;fontSize=12;image=img/lib/mscae/Docker.svg;labelBackgroundColor=none;" vertex="1" parent="1">
          <mxGeometry x="480" y="470" width="60.98" height="50" as="geometry" />
        </mxCell>
        <mxCell id="b7Ml-bm5nvbfuDIkJ_Sf-140" value="" style="shape=image;html=1;verticalAlign=top;verticalLabelPosition=bottom;labelBackgroundColor=#ffffff;imageAspect=0;aspect=fixed;image=https://cdn3.iconfinder.com/data/icons/travelling-icon-set-ii-part/800/ticket-128.png" vertex="1" parent="1">
          <mxGeometry x="700" y="500" width="100" height="100" as="geometry" />
        </mxCell>
        <mxCell id="b7Ml-bm5nvbfuDIkJ_Sf-142" value="" style="shape=image;html=1;verticalAlign=top;verticalLabelPosition=bottom;labelBackgroundColor=#ffffff;imageAspect=0;aspect=fixed;image=https://cdn3.iconfinder.com/data/icons/travelling-icon-set-ii-part/800/ticket-128.png" vertex="1" parent="1">
          <mxGeometry x="680" y="378.9" width="100" height="100" as="geometry" />
        </mxCell>
        <mxCell id="b7Ml-bm5nvbfuDIkJ_Sf-158" style="edgeStyle=orthogonalEdgeStyle;rounded=0;orthogonalLoop=1;jettySize=auto;html=1;" edge="1" parent="1" source="b7Ml-bm5nvbfuDIkJ_Sf-144" target="b7Ml-bm5nvbfuDIkJ_Sf-85">
          <mxGeometry relative="1" as="geometry">
            <Array as="points">
              <mxPoint x="961" y="103" />
            </Array>
          </mxGeometry>
        </mxCell>
        <mxCell id="b7Ml-bm5nvbfuDIkJ_Sf-144" value="" style="shape=image;html=1;verticalAlign=top;verticalLabelPosition=bottom;labelBackgroundColor=#ffffff;imageAspect=0;aspect=fixed;image=https://cdn0.iconfinder.com/data/icons/user-pictures/100/matureman2-2-128.png" vertex="1" parent="1">
          <mxGeometry x="1030.0000000000002" y="73" width="60" height="60" as="geometry" />
        </mxCell>
        <mxCell id="b7Ml-bm5nvbfuDIkJ_Sf-157" style="edgeStyle=orthogonalEdgeStyle;rounded=0;orthogonalLoop=1;jettySize=auto;html=1;" edge="1" parent="1" source="b7Ml-bm5nvbfuDIkJ_Sf-145" target="b7Ml-bm5nvbfuDIkJ_Sf-85">
          <mxGeometry relative="1" as="geometry">
            <Array as="points">
              <mxPoint x="961" y="103" />
            </Array>
          </mxGeometry>
        </mxCell>
        <mxCell id="b7Ml-bm5nvbfuDIkJ_Sf-145" value="" style="shape=image;html=1;verticalAlign=top;verticalLabelPosition=bottom;labelBackgroundColor=#ffffff;imageAspect=0;aspect=fixed;image=https://cdn0.iconfinder.com/data/icons/user-pictures/100/maturewoman-3-128.png" vertex="1" parent="1">
          <mxGeometry x="810" y="63" width="80" height="80" as="geometry" />
        </mxCell>
        <mxCell id="b7Ml-bm5nvbfuDIkJ_Sf-154" style="edgeStyle=orthogonalEdgeStyle;rounded=0;orthogonalLoop=1;jettySize=auto;html=1;" edge="1" parent="1" source="b7Ml-bm5nvbfuDIkJ_Sf-146" target="b7Ml-bm5nvbfuDIkJ_Sf-11">
          <mxGeometry relative="1" as="geometry" />
        </mxCell>
        <mxCell id="b7Ml-bm5nvbfuDIkJ_Sf-146" value="" style="shape=image;html=1;verticalAlign=top;verticalLabelPosition=bottom;labelBackgroundColor=#ffffff;imageAspect=0;aspect=fixed;image=https://cdn0.iconfinder.com/data/icons/user-pictures/100/boy-2-128.png" vertex="1" parent="1">
          <mxGeometry x="180" y="63" width="70" height="70" as="geometry" />
        </mxCell>
        <mxCell id="b7Ml-bm5nvbfuDIkJ_Sf-149" style="edgeStyle=orthogonalEdgeStyle;rounded=0;orthogonalLoop=1;jettySize=auto;html=1;" edge="1" parent="1" source="b7Ml-bm5nvbfuDIkJ_Sf-147" target="b7Ml-bm5nvbfuDIkJ_Sf-11">
          <mxGeometry relative="1" as="geometry" />
        </mxCell>
        <mxCell id="b7Ml-bm5nvbfuDIkJ_Sf-147" value="" style="shape=image;html=1;verticalAlign=top;verticalLabelPosition=bottom;labelBackgroundColor=#ffffff;imageAspect=0;aspect=fixed;image=https://cdn1.iconfinder.com/data/icons/user-pictures/100/female1-128.png" vertex="1" parent="1">
          <mxGeometry x="344" y="56.5" width="83" height="83" as="geometry" />
        </mxCell>
      </root>
    </mxGraphModel>
  </diagram>
</mxfile>
